<?xml version="1.0" standalone="no"?>
<!DOCTYPE svg PUBLIC "-//W3C//DTD SVG 1.1//EN" "http://www.w3.org/Graphics/SVG/1.1/DTD/svg11.dtd" >
<svg xmlns="http://www.w3.org/2000/svg">
<metadata>Generated by IcoMoon</metadata>
<defs>
<font id="VideoJs" horiz-adv-x="1024">
<font-face units-per-em="1024" ascent="1024" descent="0" />
<missing-glyph horiz-adv-x="1024" />
<glyph unicode="&#x20;" horiz-adv-x="0" d="" />
<glyph unicode="&#xe900;" glyph-name="controller-next" d="M626.893 536.576l-368.794 253.389c-29.286 19.61-53.299 5.222-53.299-32v-491.981c0-37.12 24.013-51.507 53.299-32l368.794 253.491c0 0 14.285 10.189 14.285 24.474 0 14.336-14.285 24.627-14.285 24.627zM716.8 819.2h51.2c28.314 0 51.2-2.458 51.2-30.72v-552.96c0-28.262-22.886-30.72-51.2-30.72h-51.2c-28.314 0-51.2 2.458-51.2 30.72v552.96c0 28.262 22.886 30.72 51.2 30.72z" />
<glyph unicode="&#xe901;" glyph-name="mic2" d="M480 320c88.366 0 160 71.634 160 160v384c0 88.366-71.634 160-160 160s-160-71.634-160-160v-384c0-88.366 71.636-160 160-160zM704 576v-96c0-123.71-100.29-224-224-224-123.712 0-224 100.29-224 224v96h-64v-96c0-148.238 112.004-270.3 256-286.22v-129.78h-128v-64h320v64h-128v129.78c143.994 15.92 256 137.982 256 286.22v96h-64z" />
<glyph unicode="&#xe902;" glyph-name="Chromecast_cast_button_icon" horiz-adv-x="1339" d="M78.771 1024v-433.254c36.205-7.36 71.256-17.824 105.026-30.861v359.094h1050.26v-735.182h-674.181c13.046-33.774 23.506-68.817 30.874-105.021h748.332v945.225h-1260.312zM0 150.674v-150.674h150.642c-19.001 73.746-76.924 131.642-150.642 150.674zM0 337.435v-106.125c117.36-21.586 209.719-113.945 231.31-231.31h106.129c-23.433 175.384-162.028 313.997-337.439 337.435zM0 522.64v-105.614c219.026-24.258 392.8-198 417.031-417.031h105.614c-24.974 277.081-245.541 497.643-522.645 522.645z" />
<glyph unicode="&#xf101;" glyph-name="play" d="M341.333 810.667v-597.333l469.333 298.667z" />
<glyph unicode="&#xf102;" glyph-name="play-circle" d="M426.667 320l256 192-256 192v-384zM512 938.667c-235.733 0-426.667-190.933-426.667-426.667s190.933-426.667 426.667-426.667 426.667 190.933 426.667 426.667-190.933 426.667-426.667 426.667zM512 170.667c-188.16 0-341.333 153.173-341.333 341.333s153.173 341.333 341.333 341.333 341.333-153.173 341.333-341.333-153.173-341.333-341.333-341.333z" />
<glyph unicode="&#xf103;" glyph-name="pause" d="M256 213.333h170.667v597.333h-170.667v-597.333zM597.333 810.667v-597.333h170.667v597.333h-170.667z" />
<glyph unicode="&#xf104;" glyph-name="volume-mute" d="M704 512c0 75.307-43.52 140.373-106.667 171.733v-94.293l104.747-104.747c1.28 8.96 1.92 18.133 1.92 27.307zM810.667 512c0-40.107-8.747-77.867-23.040-112.64l64.64-64.64c27.733 53.12 43.733 113.28 43.733 177.28 0 182.613-127.787 335.36-298.667 374.187v-88.107c123.307-36.693 213.333-150.827 213.333-286.080zM182.4 896l-54.4-54.4 201.6-201.6h-201.6v-256h170.667l213.333-213.333v286.933l181.547-181.547c-28.587-21.973-60.8-39.68-96.213-50.347v-88.107c58.667 13.44 112.213 40.32 157.227 77.227l87.040-86.827 54.4 54.4-713.6 713.6zM512 853.333l-89.173-89.173 89.173-89.173v178.347z" />
<glyph unicode="&#xf105;" glyph-name="volume-low" d="M298.667 640v-256h170.667l213.333-213.333v682.667l-213.333-213.333h-170.667z" />
<glyph unicode="&#xf106;" glyph-name="volume-mid" d="M789.333 512c0 75.307-43.52 140.373-106.667 171.733v-343.68c63.147 31.573 106.667 96.64 106.667 171.947zM213.333 640v-256h170.667l213.333-213.333v682.667l-213.333-213.333h-170.667z" />
<glyph unicode="&#xf107;" glyph-name="volume-high" d="M128 640v-256h170.667l213.333-213.333v682.667l-213.333-213.333h-170.667zM704 512c0 75.307-43.52 140.373-106.667 171.733v-343.68c63.147 31.573 106.667 96.64 106.667 171.947zM597.333 886.187v-88.107c123.307-36.693 213.333-150.827 213.333-286.080s-90.027-249.387-213.333-286.080v-88.107c170.88 38.827 298.667 191.36 298.667 374.187s-127.787 335.36-298.667 374.187z" />
<glyph unicode="&#xf108;" glyph-name="fullscreen-enter" d="M298.667 426.667h-85.333v-213.333h213.333v85.333h-128v128zM213.333 597.333h85.333v128h128v85.333h-213.333v-213.333zM725.333 298.667h-128v-85.333h213.333v213.333h-85.333v-128zM597.333 810.667v-85.333h128v-128h85.333v213.333h-213.333z" />
<glyph unicode="&#xf109;" glyph-name="fullscreen-exit" d="M213.333 341.333h128v-128h85.333v213.333h-213.333v-85.333zM341.333 682.667h-128v-85.333h213.333v213.333h-85.333v-128zM597.333 213.333h85.333v128h128v85.333h-213.333v-213.333zM682.667 682.667v128h-85.333v-213.333h213.333v85.333h-128z" />
<glyph unicode="&#xf10a;" glyph-name="square" d="M768 853.333h-512c-47.147 0-85.333-38.187-85.333-85.333v-512c0-47.147 38.187-85.333 85.333-85.333h512c47.147 0 85.333 38.187 85.333 85.333v512c0 47.147-38.187 85.333-85.333 85.333zM768 256h-512v512h512v-512z" />
<glyph unicode="&#xf10b;" glyph-name="spinner" d="M401.067 576l203.307 352.213c-29.653 6.613-60.587 10.453-92.373 10.453-102.4 0-196.053-36.053-269.653-96.213l156.373-270.72 2.347 4.267zM919.040 640c-39.253 124.8-134.4 224.427-255.787 270.507l-156.16-270.507h411.947zM930.133 597.333h-319.573l12.373-21.333 203.307-352c69.547 75.947 112.427 176.853 112.427 288 0 29.227-2.987 57.813-8.533 85.333zM364.16 512l-166.4 288c-69.547-75.947-112.427-176.853-112.427-288 0-29.227 2.987-57.813 8.533-85.333h319.573l-49.28 85.333zM104.96 384c39.253-124.8 134.4-224.427 255.787-270.507l156.16 270.507h-411.947zM585.813 384l-166.4-288.213c29.867-6.613 60.8-10.453 92.587-10.453 102.4 0 196.053 36.053 269.653 96.213l-156.373 270.72-39.467-68.267z" />
<glyph unicode="&#xf10c;" glyph-name="subtitles" d="M853.333 853.333h-682.667c-47.147 0-85.333-38.187-85.333-85.333v-512c0-47.147 38.187-85.333 85.333-85.333h682.667c47.147 0 85.333 38.187 85.333 85.333v512c0 47.147-38.187 85.333-85.333 85.333zM170.667 512h170.667v-85.333h-170.667v85.333zM597.333 256h-426.667v85.333h426.667v-85.333zM853.333 256h-170.667v85.333h170.667v-85.333zM853.333 426.667h-426.667v85.333h426.667v-85.333z" />
<glyph unicode="&#xf10d;" glyph-name="captions" d="M810.667 853.333h-597.333c-47.147 0-85.333-38.187-85.333-85.333v-512c0-47.147 38.187-85.333 85.333-85.333h597.333c47.147 0 85.333 38.187 85.333 85.333v512c0 47.147-38.187 85.333-85.333 85.333zM469.333 554.667h-64v21.333h-85.333v-128h85.333v21.333h64v-42.667c0-23.467-18.987-42.667-42.667-42.667h-128c-23.68 0-42.667 19.2-42.667 42.667v170.667c0 23.467 18.987 42.667 42.667 42.667h128c23.68 0 42.667-19.2 42.667-42.667v-42.667zM768 554.667h-64v21.333h-85.333v-128h85.333v21.333h64v-42.667c0-23.467-18.987-42.667-42.667-42.667h-128c-23.68 0-42.667 19.2-42.667 42.667v170.667c0 23.467 18.987 42.667 42.667 42.667h128c23.68 0 42.667-19.2 42.667-42.667v-42.667z" />
<glyph unicode="&#xf10e;" glyph-name="chapters" d="M128 469.333h85.333v85.333h-85.333v-85.333zM128 298.667h85.333v85.333h-85.333v-85.333zM128 640h85.333v85.333h-85.333v-85.333zM298.667 469.333h597.333v85.333h-597.333v-85.333zM298.667 298.667h597.333v85.333h-597.333v-85.333zM298.667 725.333v-85.333h597.333v85.333h-597.333z" />
<glyph unicode="&#xf10f;" glyph-name="share" d="M768 337.707c-32.427 0-61.653-12.587-83.84-32.853l-304 177.28c2.347 9.6 3.84 19.627 3.84 29.867s-1.493 20.267-3.84 29.867l300.8 175.573c22.827-21.333 53.333-34.56 87.040-34.56 70.613 0 128 57.387 128 128s-57.387 128-128 128-128-57.387-128-128c0-10.24 1.493-20.267 3.84-29.867l-300.8-175.573c-22.827 21.333-53.333 34.56-87.040 34.56-70.613 0-128-57.387-128-128s57.387-128 128-128c33.707 0 64.213 13.227 87.040 34.56l304-177.28c-2.133-8.96-3.413-18.347-3.413-27.947 0-68.693 55.68-124.373 124.373-124.373s124.373 55.68 124.373 124.373-55.68 124.373-124.373 124.373z" />
<glyph unicode="&#xf110;" glyph-name="cog" d="M829.013 470.4c1.707 13.653 2.987 27.52 2.987 41.6s-1.28 27.947-2.987 41.6l90.24 70.613c8.107 6.4 10.453 17.92 5.12 27.307l-85.333 147.84c-5.333 9.173-16.427 13.013-26.027 9.173l-106.24-42.88c-21.973 16.853-46.080 31.147-72.107 42.027l-16 113.067c-1.92 10.027-10.667 17.92-21.333 17.92h-170.667c-10.667 0-19.413-7.893-21.12-17.92l-16-113.067c-26.027-10.88-50.133-24.96-72.107-42.027l-106.24 42.88c-9.6 3.627-20.693 0-26.027-9.173l-85.333-147.84c-5.333-9.173-2.987-20.693 5.12-27.307l90.027-70.613c-1.707-13.653-2.987-27.52-2.987-41.6s1.28-27.947 2.987-41.6l-90.027-70.613c-8.107-6.4-10.453-17.92-5.12-27.307l85.333-147.84c5.333-9.173 16.427-13.013 26.027-9.173l106.24 42.88c21.973-16.853 46.080-31.147 72.107-42.027l16-113.067c1.707-10.027 10.453-17.92 21.12-17.92h170.667c10.667 0 19.413 7.893 21.12 17.92l16 113.067c26.027 10.88 50.133 24.96 72.107 42.027l106.24-42.88c9.6-3.627 20.693 0 26.027 9.173l85.333 147.84c5.333 9.173 2.987 20.693-5.12 27.307l-90.027 70.613zM512 362.667c-82.56 0-149.333 66.773-149.333 149.333s66.773 149.333 149.333 149.333 149.333-66.773 149.333-149.333-66.773-149.333-149.333-149.333z" />
<glyph unicode="&#xf111;" glyph-name="circle" d="M85.333 512c0-235.641 191.025-426.667 426.667-426.667s426.667 191.025 426.667 426.667c0 235.641-191.025 426.667-426.667 426.667s-426.667-191.025-426.667-426.667z" />
<glyph unicode="&#xf112;" glyph-name="circle-outline" d="M512 938.667c-235.733 0-426.667-190.933-426.667-426.667s190.933-426.667 426.667-426.667 426.667 190.933 426.667 426.667-190.933 426.667-426.667 426.667zM512 170.667c-188.16 0-341.333 153.173-341.333 341.333s153.173 341.333 341.333 341.333 341.333-153.173 341.333-341.333-153.173-341.333-341.333-341.333z" />
<glyph unicode="&#xf113;" glyph-name="circle-inner-circle" d="M512 938.667c-235.307 0-426.667-191.36-426.667-426.667s191.36-426.667 426.667-426.667 426.667 191.36 426.667 426.667-191.36 426.667-426.667 426.667zM512 170.667c-188.16 0-341.333 153.173-341.333 341.333s153.173 341.333 341.333 341.333 341.333-153.173 341.333-341.333-153.173-341.333-341.333-341.333zM640 512c0-70.613-57.387-128-128-128s-128 57.387-128 128 57.387 128 128 128 128-57.387 128-128z" />
<glyph unicode="&#xf114;" glyph-name="hd" d="M810.667 896h-597.333c-47.36 0-85.333-38.4-85.333-85.333v-597.333c0-46.933 37.973-85.333 85.333-85.333h597.333c46.933 0 85.333 38.4 85.333 85.333v597.333c0 46.933-38.4 85.333-85.333 85.333zM469.333 384h-64v85.333h-85.333v-85.333h-64v256h64v-106.667h85.333v106.667h64v-256zM554.667 640h170.667c23.467 0 42.667-19.2 42.667-42.667v-170.667c0-23.467-19.2-42.667-42.667-42.667h-170.667v256zM618.667 448h85.333v128h-85.333v-128z" />
<glyph unicode="&#xf115;" glyph-name="cancel" d="M512 938.667c-235.733 0-426.667-190.933-426.667-426.667s190.933-426.667 426.667-426.667 426.667 190.933 426.667 426.667-190.933 426.667-426.667 426.667zM725.333 359.040l-60.373-60.373-152.96 152.96-152.96-152.96-60.373 60.373 152.96 152.96-152.96 152.96 60.373 60.373 152.96-152.96 152.96 152.96 60.373-60.373-152.96-152.96 152.96-152.96z" />
<glyph unicode="&#xf116;" glyph-name="replay" d="M512 810.667v170.667l-213.333-213.333 213.333-213.333v170.667c141.44 0 256-114.56 256-256s-114.56-256-256-256-256 114.56-256 256h-85.333c0-188.587 152.747-341.333 341.333-341.333s341.333 152.747 341.333 341.333-152.747 341.333-341.333 341.333z" />
<glyph unicode="&#xf117;" glyph-name="facebook" d="M767.429 1017.143v-150.857h-89.714q-49.143 0-66.286-20.571t-17.143-61.714v-108h167.429l-22.286-169.143h-145.143v-433.714h-174.857v433.714h-145.714v169.143h145.714v124.571q0 106.286 59.429 164.857t158.286 58.571q84 0 130.286-6.857z" />
<glyph unicode="&#xf118;" glyph-name="gplus" d="M456.571 569.143q0-20.571 18.286-40.286t44.286-38.857 51.714-42 44-59.429 18.286-81.143q0-51.429-27.429-98.857-41.143-69.714-120.571-102.571t-170.286-32.857q-75.429 0-140.857 23.714t-98 78.571q-21.143 34.286-21.143 74.857 0 46.286 25.429 85.714t67.714 65.714q74.857 46.857 230.857 57.143-18.286 24-27.143 42.286t-8.857 41.714q0 20.571 12 48.571-26.286-2.286-38.857-2.286-84.571 0-142.571 55.143t-58 139.714q0 46.857 20.571 90.857t56.571 74.857q44 37.714 104.286 56t124.286 18.286h238.857l-78.857-50.286h-74.857q42.286-36 64-76t21.714-91.429q0-41.143-14-74t-33.714-53.143-39.714-37.143-34-35.143-14-37.714zM373.143 624q21.714 0 44.571 9.429t37.714 24.857q30.286 32.571 30.286 90.857 0 33.143-9.714 71.429t-27.714 74-48.286 59.143-66.857 23.429q-24 0-47.143-11.143t-37.429-30q-26.857-33.714-26.857-91.429 0-26.286 5.714-55.714t18-58.857 29.714-52.857 42.857-38.286 55.143-14.857zM374.286 125.143q33.143 0 63.714 7.429t56.571 22.286 41.714 41.714 15.714 62.286q0 14.286-4 28t-8.286 24-15.429 23.714-16.857 20-22 19.714-20.857 16.571-23.714 17.143-20.857 14.857q-9.143 1.143-27.429 1.143-30.286 0-60-4t-61.429-14.286-55.429-26.286-39.143-42.571-15.429-60.286q0-40 20-70.571t52.286-47.429 68-25.143 72.857-8.286zM837.143 625.714h121.714v-61.714h-121.714v-125.143h-60v125.143h-121.143v61.714h121.143v124h60v-124z" />
<glyph unicode="&#xf119;" glyph-name="linkedin" d="M272.571 666.857v-566.286h-188.571v566.286h188.571zM284.571 841.714q0.571-41.714-28.857-69.714t-77.429-28h-1.143q-46.857 0-75.429 28t-28.571 69.714q0 42.286 29.429 70t76.857 27.714 76-27.714 29.143-70zM950.857 425.143v-324.571h-188v302.857q0 60-23.143 94t-72.286 34q-36 0-60.286-19.714t-36.286-48.857q-6.286-17.143-6.286-46.286v-316h-188q1.143 228 1.143 369.714t-0.571 169.143l-0.571 27.429h188v-82.286h-1.143q11.429 18.286 23.429 32t32.286 29.714 49.714 24.857 65.429 8.857q97.714 0 157.143-64.857t59.429-190z" />
<glyph unicode="&#xf11a;" glyph-name="twitter" d="M962.286 790.857q-38.286-56-92.571-95.429 0.571-8 0.571-24 0-74.286-21.714-148.286t-66-142-105.429-120.286-147.429-83.429-184.571-31.143q-154.857 0-283.429 82.857 20-2.286 44.571-2.286 128.571 0 229.143 78.857-60 1.143-107.429 36.857t-65.143 91.143q18.857-2.857 34.857-2.857 24.571 0 48.571 6.286-64 13.143-106 63.714t-42 117.429v2.286q38.857-21.714 83.429-23.429-37.714 25.143-60 65.714t-22.286 88q0 50.286 25.143 93.143 69.143-85.143 168.286-136.286t212.286-56.857q-4.571 21.714-4.571 42.286 0 76.571 54 130.571t130.571 54q80 0 134.857-58.286 62.286 12 117.143 44.571-21.143-65.714-81.143-101.714 53.143 5.714 106.286 28.571z" />
<glyph unicode="&#xf11b;" glyph-name="tumblr" d="M758.857 264.571l45.714-135.429q-13.143-20-63.429-37.714t-101.143-18.286q-59.429-1.143-108.857 14.857t-81.429 42.286-54.286 60.571-31.714 68.571-9.429 67.429v310.857h-96v122.857q41.143 14.857 73.714 39.714t52 51.429 33.143 58.286 19.429 56.571 8.571 50.571q0.571 2.857 2.571 4.857t4.286 2h139.429v-242.286h190.286v-144h-190.857v-296q0-17.143 3.714-32t12.857-30 28.286-23.714 46.571-8q44.571 1.143 76.571 16.571z" />
<glyph unicode="&#xf11c;" glyph-name="pinterest" d="M950.857 512q0-119.429-58.857-220.286t-159.714-159.714-220.286-58.857q-63.429 0-124.571 18.286 33.714 53.143 44.571 93.714 5.143 19.429 30.857 120.571 11.429-22.286 41.714-38.571t65.143-16.286q69.143 0 123.429 39.143t84 107.714 29.714 154.286q0 65.143-34 122.286t-98.571 93.143-145.714 36q-60 0-112-16.571t-88.286-44-62.286-63.143-38.286-74-12.286-76.571q0-59.429 22.857-104.571t66.857-63.429q17.143-6.857 21.714 11.429 1.143 4 4.571 17.714t4.571 17.143q3.429 13.143-6.286 24.571-29.143 34.857-29.143 86.286 0 86.286 59.714 148.286t156.286 62q86.286 0 134.571-46.857t48.286-121.714q0-97.143-39.143-165.143t-100.286-68q-34.857 0-56 24.857t-13.143 59.714q4.571 20 15.143 53.429t17.143 58.857 6.571 43.143q0 28.571-15.429 47.429t-44 18.857q-35.429 0-60-32.571t-24.571-81.143q0-41.714 14.286-69.714l-56.571-238.857q-9.714-40-7.429-101.143-117.714 52-190.286 160.571t-72.571 241.714q0 119.429 58.857 220.286t159.714 159.714 220.286 58.857 220.286-58.857 159.714-159.714 58.857-220.286z" />
<glyph unicode="&#xf11d;" glyph-name="audio-description" d="M454.579 261.298v436.717c100.761 2.034 178.217 6.056 235.263-34.252 54.749-38.684 97.468-113.93 89.779-210.649-8.134-102.311-82.67-188.279-179.551-196.95-48.17-4.311-143.946 0-143.946 0s-1.68 2.704-1.546 5.135zM552.089 370.907c62.86-2.52 106.417 33.266 112.991 90.771 8.805 77.019-42.377 127.105-116.083 121.593v-207.224c-0.072-2.933 1.152-4.438 3.092-5.139zM767.56 261.344c26.672-7.419 34.774 22.119 46.43 42.816 25.443 45.143 44.587 103.188 44.891 169.548 0.442 95.189-36.686 165.034-71.202 212.364h-17.021c-1.173-7.746 4.453-14.628 7.732-20.552 26.332-47.523 50.733-113.106 51.081-188.387 0.398-86.352-28.325-158.557-61.911-215.789zM850.307 261.344c26.672-7.419 34.768 22.123 46.43 42.816 25.443 45.143 44.583 103.188 44.891 169.548 0.442 95.189-36.686 165.034-71.202 212.364h-17.021c-1.173-7.746 4.451-14.63 7.732-20.552 26.332-47.523 50.734-113.106 51.081-188.387 0.398-86.352-28.325-158.557-61.911-215.789zM932.522 261.344c26.672-7.419 34.768 22.123 46.43 42.816 25.443 45.143 44.583 103.188 44.891 169.548 0.442 95.189-36.686 165.034-71.202 212.364h-17.021c-1.173-7.746 4.451-14.629 7.732-20.552 26.332-47.523 50.733-113.106 51.081-188.387 0.398-86.352-28.325-158.557-61.911-215.789zM8.953 257.99h136.207l37.146 56.967 128.337 0.271c0 0 0.13-38.826 0.13-57.238h97.512v445.394h-117.632c-11.306-19.074-281.7-445.394-281.7-445.394v0zM314.288 548.555v-142.317l-80.906 0.542 80.906 141.775z" />
</font>
</defs>
</svg>
